<?xml version="1.0" standalone="no"?>
<!DOCTYPE svg PUBLIC "-//W3C//DTD SVG 20010904//EN"
 "http://www.w3.org/TR/2001/REC-SVG-20010904/DTD/svg10.dtd">
<svg version="1.0" xmlns="http://www.w3.org/2000/svg"
 width="672.000000pt" height="672.000000pt" viewBox="0 0 672.000000 672.000000"
 preserveAspectRatio="xMidYMid meet">
<metadata>
Created by potrace 1.11, written by Peter Selinger 2001-2013
</metadata>
<g transform="translate(0.000000,672.000000) scale(0.100000,-0.100000)"
fill="#000000" stroke="none">
<path d="M1199 6715 c-3 -2 -18 -6 -34 -9 -17 -3 -62 -21 -100 -40 -106 -53
-189 -144 -237 -264 l-23 -57 -2 -2960 c-2 -2398 0 -2970 10 -3015 26 -110
125 -250 205 -291 15 -8 29 -16 32 -19 10 -11 86 -40 130 -50 29 -6 805 -9
2205 -7 l2160 2 56 23 c139 56 235 152 291 290 l23 57 3 2373 2 2373 -799 800
-800 799 -1559 0 c-857 0 -1561 -2 -1563 -5z"/>
</g>
</svg>
